<svg width="48" height="48" viewBox="0 0 48 48" fill="none" xmlns="http://www.w3.org/2000/svg">
  <path d="M24 4C12.96 4 4 12.96 4 24C4 27.88 5.16 31.52 7.32 34.52L4 44L13.84 40.88C16.64 42.44 20.16 43.28 24 43.28C35.04 43.28 44 34.32 44 24C44 12.96 35.04 4 24 4ZM24 39.28C20.84 39.28 17.84 38.44 15.2 36.88L14.24 36.28L9.84 37.72L11.28 33.32L10.68 32.36C8.92 29.88 8 27.04 8 24C8 15.16 15.16 8 24 8C32.84 8 40 15.16 40 24C40 32.84 32.84 39.28 24 39.28ZM30.84 28.44C30.36 28.2 27.8 26.92 27.32 26.72C26.92 26.52 26.68 26.48 26.4 26.92C26.12 27.36 25.4 28.24 25.2 28.48C25.04 28.72 24.88 28.72 24.4 28.48C23.96 28.28 22.52 27.76 21.2 26.44C20.08 25.32 19.4 24.04 19.2 23.64C19.04 23.24 19.28 23.04 19.52 22.84C19.72 22.64 20 22.28 20.2 22.04C20.4 21.76 20.44 21.56 20.6 21.24C20.72 20.92 20.68 20.64 20.6 20.4C20.48 20.16 19.44 17.36 19.08 16.4C18.72 15.48 18.32 15.6 18.08 15.6C17.84 15.6 17.6 15.6 17.36 15.6C17.12 15.6 16.8 15.68 16.56 15.92C16.28 16.16 15.6 16.8 15.6 18.04C15.6 19.28 16.48 20.48 16.6 20.72C16.72 21 18.08 23.64 20.4 25.92C22.72 28.2 25.48 29.28 25.76 29.4C26.04 29.52 27.84 30.2 28.84 30.48C29.84 30.76 30.64 30.68 31.24 30.6C31.84 30.52 33.12 29.76 33.4 29.12C33.68 28.52 33.68 28 33.6 27.84C33.52 27.68 33.32 27.56 32.84 27.36Z" fill="#25D366"></path>
</svg>
